<?xml version="1.0" encoding="UTF-8"?>
<svg id="Layer_1" xmlns="http://www.w3.org/2000/svg" version="1.1" viewBox="0 0 278.37 48">
  <!-- Generator: Adobe Illustrator 29.6.0, SVG Export Plug-In . SVG Version: 2.1.1 Build 207)  -->
  <defs>
    <style>
      .st0 {
        fill: #172931;
      }

      .st1 {
        fill: #d4835b;
      }
    </style>
  </defs>
  <g>
    <path class="st0" d="M57.86,37.19v-.52c1.22-.41,1.48-1.52,1.48-4.18v-16.49c0-2.66-.26-3.77-1.48-4.18v-.52h17.74l.41,5.21-.48.11c-1.48-3.62-3.81-4.73-7.95-4.73h-4.32v11.09h3.55c4.51,0,5.8-.89,6.4-2.81h.52v6.21h-.52c-.59-1.92-1.89-2.81-6.4-2.81h-3.55v11.16c0,1.18.67,1.85,1.85,1.85h3.55c3.73,0,6.28-1.11,7.69-4.88l.48.07-.26,5.4h-18.71Z"/>
    <path class="st0" d="M93.05,36.67c1.22-.41.44-1.22-.96-3.51l-4.73-7.87-5.32,7.98c-1.48,2.22-1.29,3.11.33,3.4v.52h-4.77v-.52c1.07-.37,2.18-1.18,3.66-3.4l5.73-8.61-5.62-9.32c-1.4-2.29-2.44-3.14-3.25-3.51v-.52h6.88v.52c-1.22.41-.44,1.22.96,3.51l3.99,6.62,4.47-6.73c1.48-2.22,1.29-3.11-.33-3.4v-.52h4.77v.52c-1.07.37-2.18,1.18-3.66,3.4l-4.88,7.36,6.36,10.57c1.4,2.29,2.44,3.14,3.25,3.51v.52h-6.88v-.52Z"/>
    <path class="st0" d="M101.04,36.67c1.22-.41,1.48-1.52,1.48-4.18v-16.49c0-2.66-.26-3.77-1.48-4.18v-.52h7.76c8.43,0,10.35,4.18,10.35,7.17,0,4.62-3.33,8.54-10.9,8.54h-1.81v5.47c0,2.66.26,3.77,1.48,4.18v.52h-6.88v-.52ZM114.97,19.45c0-3.18-1.55-7.54-7.39-7.54-.37,0-.89.04-1.15.07v14.45h1.63c4.84,0,6.91-2.81,6.91-6.99Z"/>
    <path class="st0" d="M134.94,31.13c-2.22-5.4-2.4-7.21-5.66-7.21h-2.18v8.58c0,2.66.26,3.77,1.48,4.18v.52h-6.88v-.52c1.22-.41,1.48-1.52,1.48-4.18v-16.49c0-2.66-.26-3.77-1.48-4.18v-.52h7.76c8.06,0,9.72,2.92,9.72,5.91,0,3.4-2.33,5.95-7.25,6.54,4.18.48,4.99,2.22,6.95,7.13,1.96,4.92,2.37,5.8,3.73,5.8.19,0,.37,0,.55-.04v.52c-.85.22-2.03.26-2.66.26-3.07,0-3.81-2-5.58-6.32ZM135.27,18.12c0-2.99-1.92-6.21-6.54-6.21-.52,0-1.07.04-1.63.11v11.31h2.37c4.21,0,5.8-2.37,5.8-5.21Z"/>
    <path class="st0" d="M144.55,37.19v-.52c1.22-.41,1.48-1.52,1.48-4.18v-16.49c0-2.66-.26-3.77-1.48-4.18v-.52h17.74l.41,5.21-.48.11c-1.48-3.62-3.81-4.73-7.95-4.73h-4.32v11.09h3.55c4.51,0,5.8-.89,6.4-2.81h.52v6.21h-.52c-.59-1.92-1.89-2.81-6.4-2.81h-3.55v11.16c0,1.18.67,1.85,1.85,1.85h3.55c3.73,0,6.28-1.11,7.69-4.88l.48.07-.26,5.4h-18.71Z"/>
    <path class="st0" d="M166.25,34.94l-.15-5.54.48-.07c1.55,4.21,4.84,7.47,9.76,7.47,2.55,0,4.92-1.63,4.92-4.66,0-3.62-4.77-5.32-7.73-6.51-3.81-1.59-6.99-2.85-6.99-7.13,0-4.58,3.7-7.43,9.5-7.43,2.74,0,5.18.59,7.1,1.55l.15,4.81-.41.15c-1.52-3.81-4.66-5.88-8.24-5.88-2.96,0-5.29,1.74-5.29,4.66,0,3.29,3.73,4.62,6.69,5.8,3.77,1.44,8.24,3.11,8.24,7.54,0,5.06-4.66,7.87-8.91,7.87-3.81,0-7.25-1.22-9.13-2.62Z"/>
    <path class="st0" d="M186.69,34.94l-.15-5.54.48-.07c1.55,4.21,4.84,7.47,9.76,7.47,2.55,0,4.92-1.63,4.92-4.66,0-3.62-4.77-5.32-7.73-6.51-3.81-1.59-6.99-2.85-6.99-7.13,0-4.58,3.7-7.43,9.5-7.43,2.74,0,5.18.59,7.1,1.55l.15,4.81-.41.15c-1.52-3.81-4.66-5.88-8.24-5.88-2.96,0-5.29,1.74-5.29,4.66,0,3.29,3.73,4.62,6.69,5.8,3.77,1.44,8.24,3.11,8.24,7.54,0,5.06-4.66,7.87-8.91,7.87-3.81,0-7.25-1.22-9.13-2.62Z"/>
    <path class="st0" d="M215.08,24.7c0-7.47,5.91-13.64,14.97-13.64,2.74,0,6.54.52,8.47,1.81l.15,4.88-.44.11c-1.52-3.81-5.32-6.1-9.13-6.1-5.91,0-10.09,3.92-10.09,11.28s4.21,13.75,11.42,13.75c4.14,0,6.99-2.51,8.32-6.36l.48.07-.59,5.29c-1.96.89-4.77,1.77-9.28,1.77-8.83,0-14.27-4.58-14.27-12.86Z"/>
    <path class="st0" d="M242.84,24.14c0-7.32,5.4-13.12,13.23-13.12,6.25,0,13.2,4.29,13.2,13.35s-6.99,13.2-13.2,13.2-13.23-4.14-13.23-13.42ZM265.54,27.28c-.55-7.87-4.99-15.3-11.39-15.3-5.03,0-7.87,3.92-7.47,9.91.52,7.39,5.21,14.53,11.5,14.53,5.66,0,7.69-4.25,7.36-9.13Z"/>
  </g>
  <polygon class="st1" points="33.45 6.43 51.03 24 33.45 41.57 26.34 34.46 36.79 24 26.33 13.55 33.45 6.43"/>
  <rect class="st1" x="12.16" y="16.61" width="14.78" height="14.79" transform="translate(-11.24 20.86) rotate(-45)"/>
</svg>